<svg fill="none" height="24" viewBox="0 0 24 24" width="24" xmlns="http://www.w3.org/2000/svg"><g stroke="#141414" stroke-linecap="round" stroke-linejoin="round"><path d="m12 18.25c3.5 0 7.25-1.75 7.25-6.25s-3.75-6.25-7.25-6.25-7.25 1.75-7.25 6.25c0 1.0298.19639 1.9156.54123 2.6693.21495.4699.33552.988.24031 1.4958l-.2622 1.3984c-.1296.6912.47593 1.2968 1.16717 1.1672l3.20737-.6014c.25212-.0473.51062-.0432.76392-.003.5272.0836 1.0626.1237 1.5922.1237z" stroke-width="1.5"/><path d="m9.5 12c0 .2761-.22386.5-.5.5s-.5-.2239-.5-.5.22386-.5.5-.5.5.2239.5.5z"/><path d="m12.5 12c0 .2761-.2239.5-.5.5s-.5-.2239-.5-.5.2239-.5.5-.5.5.2239.5.5z"/><path d="m15.5 12c0 .2761-.2239.5-.5.5s-.5-.2239-.5-.5.2239-.5.5-.5.5.2239.5.5z"/></g></svg>