<svg xmlns="http://www.w3.org/2000/svg" xml:space="preserve" id="Capa_1" width="64" height="64" fill="#4e8b49" stroke="#4e8b49" stroke-width="1.111" viewBox="0 0 61.724 61.724"><path id="SVGRepo_iconCarrier" d="M0 13.073a3.147 3.147 0 0 1 3.147-3.147l13.373-.001c.027 0 .054.007.081.008a6.17 6.17 0 0 1 4.453 1.809 6.203 6.203 0 0 1 .003 8.771 6.204 6.204 0 0 1-8.771-.002 6.18 6.18 0 0 1-1.806-4.292H3.147A3.146 3.146 0 0 1 0 13.073Zm38.852.094a3.15 3.15 0 0 1 3.147-3.147l13.373-.001c.028 0 .054.007.081.008a6.17 6.17 0 0 1 4.453 1.809 6.203 6.203 0 0 1 .003 8.771 6.204 6.204 0 0 1-8.771-.002 6.18 6.18 0 0 1-1.807-4.292h-7.333a3.146 3.146 0 0 1-3.146-3.146ZM9.676 38.829c9.86.311 32.958 1.908 34.468 10.011a2.5 2.5 0 0 1-4.916.917c-.004-.025-1.084-2.695-14.427-4.593-7.636-1.086-15.207-1.334-15.283-1.337a2.5 2.5 0 0 1 .078-4.998q.038-.002.08 0Z"/></svg>