<svg xmlns="http://www.w3.org/2000/svg" xml:space="preserve" id="Capa_1" width="64" height="64" fill="#4e8b49" stroke="#4e8b49" stroke-width="2.426" viewBox="0 0 86.639 86.639"><g id="SVGRepo_iconCarrier"><path d="M40.473 53.603c-7.49 0-13.996-.879-19.372-2.069C11.676 49.447 4.551 46.228 0 43.721a44.6 44.6 0 0 0 11.506 19.796c17.493 17.493 45.961 17.49 63.455-.002a44.6 44.6 0 0 0 11.678-20.438c-17.748 7.947-33.39 10.526-46.166 10.526Zm24.239 11.082c-11.828 8.736-31.075 8.738-42.902.001-3.847-2.843-6.434-6.267-7.779-9.891 3.077 1.252 7.894 2.86 14.266 3.902 3.636.595 8.033 1.034 13.097 1.034 8.637 0 19.213-1.288 31.213-5.258-1.308 3.746-3.936 7.286-7.895 10.212ZM58.748 31.076a6.2 6.2 0 0 0 6.199-6.203c0-1.679-.67-3.199-1.754-4.315l5.182-5.183a3.145 3.145 0 1 0-4.449-4.449l-9.457 9.455c-.015.015-.023.032-.038.047a6.18 6.18 0 0 0-1.884 4.445 6.203 6.203 0 0 0 6.201 6.203ZM24.27 20.558a6.18 6.18 0 0 0-1.754 4.315 6.2 6.2 0 0 0 6.201 6.203 6.2 6.2 0 0 0 6.199-6.203 6.18 6.18 0 0 0-1.884-4.446c-.014-.015-.023-.031-.038-.046l-9.455-9.455a3.146 3.146 0 0 0-4.451 0 3.145 3.145 0 0 0 0 4.449Z"/></g></svg>