<svg xmlns="http://www.w3.org/2000/svg" xml:space="preserve" id="Capa_1" width="64" height="64" fill="#4e8b49" viewBox="0 0 46.47 46.469"><path id="SVGRepo_iconCarrier" d="M29.062 9.086c0-4.797 3.904-8.701 8.703-8.701 4.797 0 8.701 3.903 8.701 8.701a2.5 2.5 0 1 1-5 0 3.705 3.705 0 0 0-3.701-3.701 3.706 3.706 0 0 0-3.703 3.701 2.5 2.5 0 1 1-5 0M1.339 9.059c0-4.797 3.904-8.701 8.703-8.701 4.797 0 8.701 3.903 8.701 8.701a2.5 2.5 0 1 1-5 0 3.705 3.705 0 0 0-3.701-3.701 3.706 3.706 0 0 0-3.703 3.701 2.5 2.5 0 1 1-5 0M.23 31.41A3 3 0 0 1 3 27.259c1.176 0 2.292.696 2.771 1.851 2.777 6.685 9.655 11.004 17.523 11.004 7.69 0 14.528-4.321 17.421-11.011a3 3 0 1 1 5.506 2.381C42.38 40.37 33.38 46.112 23.294 46.112 12.993 46.113 3.94 40.342.23 31.41"/></svg>